<?xml version="1.0" encoding="UTF-8" standalone="no"?>
<!-- Created with Inkscape (http://www.inkscape.org/) -->

<svg
   xmlns:dc="http://purl.org/dc/elements/1.1/"
   xmlns:cc="http://creativecommons.org/ns#"
   xmlns:rdf="http://www.w3.org/1999/02/22-rdf-syntax-ns#"
   xmlns:svg="http://www.w3.org/2000/svg"
   xmlns="http://www.w3.org/2000/svg"
   xmlns:sodipodi="http://sodipodi.sourceforge.net/DTD/sodipodi-0.dtd"
   xmlns:inkscape="http://www.inkscape.org/namespaces/inkscape"
   width="1000"
   height="1000"
   id="svg3222"
   version="1.1"
   inkscape:version="0.48.3.1 r9886"
   sodipodi:docname="Nuevo documento 4">
  <defs
     id="defs3224" />
  <sodipodi:namedview
     id="base"
     pagecolor="#ffffff"
     bordercolor="#666666"
     borderopacity="1.0"
     inkscape:pageopacity="0.0"
     inkscape:pageshadow="2"
     inkscape:zoom="0.35"
     inkscape:cx="350"
     inkscape:cy="520"
     inkscape:document-units="px"
     inkscape:current-layer="layer1"
     showgrid="false"
     showborder="true"
     inkscape:window-width="1615"
     inkscape:window-height="1026"
     inkscape:window-x="65"
     inkscape:window-y="24"
     inkscape:window-maximized="1" />
  <metadata
     id="metadata3227">
    <rdf:RDF>
      <cc:Work
         rdf:about="">
        <dc:format>image/svg+xml</dc:format>
        <dc:type
           rdf:resource="http://purl.org/dc/dcmitype/StillImage" />
        <dc:title></dc:title>
      </cc:Work>
    </rdf:RDF>
  </metadata>
  <g
     inkscape:label="Capa 1"
     inkscape:groupmode="layer"
     id="layer1"
     transform="translate(0,-52.362183)">
    <g
       transform="matrix(8.6700205,0,0,-8.6701866,-5243.5721,1739.1485)"
       id="g3166">
      <path
         d="m 696.362,137.406 c -1.065,-23.846 -20.73,-42.8533 -44.839,-42.8533 -24.109,0 -43.775,19.0073 -44.84,42.8533 -0.031,-0.688 -0.053,-1.378 -0.053,-2.073 0,-24.793 20.099,-44.8904 44.893,-44.8904 24.793,0 44.891,20.0974 44.891,44.8904 0,0.695 -0.019,1.385 -0.052,2.073"
         style="fill:#231f20;fill-opacity:1;fill-rule:nonzero;stroke:none"
         id="path108"
         inkscape:connector-curvature="0" />
      <path
         d="m 628.564,135.695 c 1.066,23.847 20.731,42.855 44.84,42.855 24.109,0 43.775,-19.008 44.84,-42.855 0.031,0.687 0.053,1.378 0.053,2.073 0,24.793 -20.099,44.892 -44.893,44.892 -24.793,0 -44.892,-20.099 -44.892,-44.892 0,-0.695 0.02,-1.386 0.052,-2.073"
         style="fill:#231f20;fill-opacity:1;fill-rule:nonzero;stroke:none"
         id="path110"
         inkscape:connector-curvature="0" />
      <path
         d="m 663.318,102.653 c -23.845,1.067 -42.853,20.732 -42.853,44.84 0,24.109 19.008,43.774 42.853,44.84 -0.687,0.031 -1.377,0.051 -2.072,0.051 -24.794,0 -44.891,-20.099 -44.891,-44.891 0,-24.793 20.097,-44.892 44.891,-44.892 0.695,0 1.385,0.022 2.072,0.052"
         style="fill:#231f20;fill-opacity:1;fill-rule:nonzero;stroke:none"
         id="path112"
         inkscape:connector-curvature="0" />
      <path
         d="m 661.609,170.45 c 23.844,-1.064 42.853,-20.73 42.853,-44.839 0,-24.107 -19.009,-43.7731 -42.853,-44.8407 0.687,-0.0293 1.377,-0.0508 2.072,-0.0508 24.794,0 44.892,20.0985 44.892,44.8915 0,24.792 -20.098,44.891 -44.892,44.891 -0.695,0 -1.385,-0.02 -2.072,-0.052"
         style="fill:#231f20;fill-opacity:1;fill-rule:nonzero;stroke:none"
         id="path114"
         inkscape:connector-curvature="0" />
      <path
         d="m 678.273,136.948 c -0.498,-11.12 -9.668,-19.986 -20.912,-19.986 -11.244,0 -20.417,8.866 -20.914,19.986 -0.015,-0.321 -0.023,-0.642 -0.023,-0.964 0,-11.564 9.373,-20.938 20.935,-20.938 11.565,0 20.937,9.374 20.94,20.938 0,0.322 -0.012,0.643 -0.026,0.964"
         style="fill:#231f20;fill-opacity:1;fill-rule:nonzero;stroke:none"
         id="path116"
         inkscape:connector-curvature="0" />
      <path
         d="m 646.654,136.152 c 0.496,11.121 9.667,19.986 20.912,19.986 11.244,0 20.416,-8.865 20.911,-19.986 0.016,0.319 0.026,0.643 0.026,0.964 0,11.565 -9.373,20.94 -20.937,20.94 -11.563,0 -20.938,-9.375 -20.938,-20.937 0,-0.324 0.011,-0.648 0.026,-0.967"
         style="fill:#231f20;fill-opacity:1;fill-rule:nonzero;stroke:none"
         id="path118"
         inkscape:connector-curvature="0" />
      <path
         d="m 662.863,120.739 c -11.123,0.499 -19.988,9.67 -19.988,20.913 0,11.246 8.865,20.417 19.988,20.913 -0.322,0.016 -0.644,0.024 -0.967,0.026 -11.564,-0.002 -20.938,-9.375 -20.938,-20.939 0,-11.561 9.374,-20.936 20.938,-20.936 0.323,0 0.645,0.01 0.967,0.023"
         style="fill:#231f20;fill-opacity:1;fill-rule:nonzero;stroke:none"
         id="path120"
         inkscape:connector-curvature="0" />
      <path
         d="m 662.064,152.361 c 11.123,-0.499 19.987,-9.668 19.987,-20.913 0,-11.242 -8.864,-20.417 -19.987,-20.914 0.321,-0.011 0.642,-0.022 0.967,-0.022 11.563,0 20.938,9.375 20.938,20.936 0,11.561 -9.374,20.936 -20.938,20.936 -0.325,0 -0.646,-0.01 -0.967,-0.023"
         style="fill:#231f20;fill-opacity:1;fill-rule:nonzero;stroke:none"
         id="path122"
         inkscape:connector-curvature="0" />
      <path
         d="m 670.021,136.742 c -0.24,-5.313 -4.623,-9.552 -9.996,-9.552 -5.375,0 -9.758,4.239 -9.996,9.552 -0.008,-0.156 -0.01,-0.307 -0.01,-0.464 0,-5.524 4.479,-10.004 10.006,-10.004 5.527,0 10.005,4.48 10.005,10.004 0,0.157 -0.003,0.308 -0.009,0.464"
         style="fill:#231f20;fill-opacity:1;fill-rule:nonzero;stroke:none"
         id="path124"
         inkscape:connector-curvature="0" />
      <path
         d="m 654.906,136.361 c 0.24,5.314 4.623,9.552 9.996,9.552 5.375,0 9.758,-4.238 9.994,-9.552 0.008,0.153 0.012,0.308 0.012,0.46 0,5.527 -4.479,10.008 -10.006,10.008 -5.527,0 -10.006,-4.481 -10.006,-10.004 0,-0.156 0.004,-0.311 0.01,-0.464"
         style="fill:#231f20;fill-opacity:1;fill-rule:nonzero;stroke:none"
         id="path126"
         inkscape:connector-curvature="0" />
      <path
         d="m 662.655,128.996 c -5.317,0.238 -9.553,4.618 -9.553,9.993 0,5.375 4.236,9.76 9.553,9.997 -0.153,0.005 -0.31,0.011 -0.464,0.011 -5.525,0 -10.006,-4.481 -10.006,-10.008 0,-5.524 4.481,-10.005 10.006,-10.005 0.154,0 0.311,0.005 0.464,0.012"
         style="fill:#231f20;fill-opacity:1;fill-rule:nonzero;stroke:none"
         id="path128"
         inkscape:connector-curvature="0" />
      <path
         d="m 662.271,144.107 c 5.317,-0.237 9.553,-4.618 9.553,-9.993 0,-5.376 -4.236,-9.759 -9.553,-9.996 0.154,-0.007 0.307,-0.012 0.465,-0.012 5.525,0 10.005,4.482 10.005,10.008 0,5.524 -4.48,10.006 -10.005,10.006 -0.158,0 -0.311,-0.006 -0.465,-0.013"
         style="fill:#231f20;fill-opacity:1;fill-rule:nonzero;stroke:none"
         id="path130"
         inkscape:connector-curvature="0" />
    </g>
  </g>
</svg>
